<mxfile host="app.diagrams.net" modified="2024-01-07T19:22:44.743Z" agent="Mozilla/5.0 (Macintosh; Intel Mac OS X 10_15_7) AppleWebKit/537.36 (KHTML, like Gecko) Chrome/120.0.0.0 Safari/537.36" etag="CXdllD4L7QZgItoYGaP8" version="21.7.0" type="github">
  <diagram name="Page-1" id="p3xlX53l1xXB9bB7H0Pl">
    <mxGraphModel dx="1242" dy="820" grid="1" gridSize="10" guides="1" tooltips="1" connect="1" arrows="1" fold="1" page="1" pageScale="1" pageWidth="850" pageHeight="1100" math="1" shadow="0">
      <root>
        <mxCell id="0" />
        <mxCell id="1" parent="0" />
        <mxCell id="Ddu9wDRHc_xumgMtI3vM-28" value="" style="endArrow=none;html=1;rounded=0;entryX=0.005;entryY=0.848;entryDx=0;entryDy=0;targetPerimeterSpacing=0;endSize=6;jumpStyle=line;jumpSize=6;sourcePerimeterSpacing=0;entryPerimeter=0;" parent="1" target="Ddu9wDRHc_xumgMtI3vM-4" edge="1">
          <mxGeometry width="50" height="50" relative="1" as="geometry">
            <mxPoint x="470" y="215" as="sourcePoint" />
            <mxPoint x="575" y="213" as="targetPoint" />
          </mxGeometry>
        </mxCell>
        <mxCell id="Ddu9wDRHc_xumgMtI3vM-1" value="&lt;font style=&quot;font-size: 15px;&quot;&gt;User&lt;/font&gt;" style="rounded=1;whiteSpace=wrap;html=1;fillColor=#d5e8d4;strokeColor=#82b366;" parent="1" vertex="1">
          <mxGeometry x="80" y="70" width="120" height="30" as="geometry" />
        </mxCell>
        <mxCell id="Ddu9wDRHc_xumgMtI3vM-2" value="&lt;font style=&quot;font-size: 16px;&quot;&gt;Gateway&lt;/font&gt;" style="rounded=1;whiteSpace=wrap;html=1;fillColor=#d5e8d4;strokeColor=#82b366;" parent="1" vertex="1">
          <mxGeometry x="655" y="70" width="120" height="30" as="geometry" />
        </mxCell>
        <mxCell id="Ddu9wDRHc_xumgMtI3vM-3" value="&lt;div style=&quot;text-align: justify;&quot;&gt;&lt;span style=&quot;background-color: initial;&quot;&gt;Enter: U&lt;/span&gt;&lt;sub style=&quot;background-color: initial; font-size: 15px;&quot;&gt;ID&lt;/sub&gt;&lt;/div&gt;&lt;div style=&quot;text-align: justify;&quot;&gt;&lt;span style=&quot;background-color: initial;&quot;&gt;Generate: R&lt;/span&gt;&lt;sub style=&quot;background-color: initial; font-size: 15px;&quot;&gt;q&lt;/sub&gt;&lt;/div&gt;" style="rounded=1;whiteSpace=wrap;html=1;fillColor=#ffe6cc;strokeColor=#d79b00;fontSize=15;" parent="1" vertex="1">
          <mxGeometry x="80" y="140" width="120" height="60" as="geometry" />
        </mxCell>
        <mxCell id="Ddu9wDRHc_xumgMtI3vM-4" value="&lt;div style=&quot;text-align: justify;&quot;&gt;&lt;span style=&quot;font-size: 16px; background-color: initial;&quot;&gt;Generate: `C_U`&lt;/span&gt;&lt;/div&gt;&lt;font style=&quot;font-size: 16px;&quot;&gt;&lt;div style=&quot;text-align: justify;&quot;&gt;&lt;span style=&quot;background-color: initial;&quot;&gt;Select: `{G,H}_{EC}`&lt;/span&gt;&lt;/div&gt;&lt;/font&gt;" style="rounded=1;whiteSpace=wrap;html=1;fillColor=#ffe6cc;strokeColor=#d79b00;" parent="1" vertex="1">
          <mxGeometry x="640" y="146" width="150" height="80" as="geometry" />
        </mxCell>
        <mxCell id="Ddu9wDRHc_xumgMtI3vM-5" value="&lt;div style=&quot;text-align: justify;&quot;&gt;&lt;span style=&quot;font-size: 16px; background-color: initial;&quot;&gt;Compute: `R_U=P_U(C_U)&amp;nbsp; (3)`&lt;/span&gt;&lt;/div&gt;&lt;font style=&quot;font-size: 16px;&quot;&gt;&lt;div style=&quot;text-align: justify;&quot;&gt;&lt;span style=&quot;background-color: initial;&quot;&gt;Enter: Gen(Bio) = `(B_1, B_2)`&lt;/span&gt;&lt;/div&gt;&lt;div style=&quot;text-align: justify;&quot;&gt;&lt;span style=&quot;background-color: initial;&quot;&gt;Compute: Z = `h(B_1)_{T96}&amp;nbsp; (4)`&lt;/span&gt;&lt;/div&gt;&lt;div style=&quot;text-align: justify;&quot;&gt;Compute: W = `h(R_U)_{T96}&amp;nbsp; (5)`&lt;span style=&quot;background-color: initial;&quot;&gt;&lt;br&gt;&lt;/span&gt;&lt;/div&gt;&lt;div style=&quot;text-align: justify;&quot;&gt;&lt;span style=&quot;background-color: initial;&quot;&gt;Compute: `\tau_1= ZG&amp;nbsp; (6)`&lt;/span&gt;&lt;/div&gt;&lt;div style=&quot;text-align: justify;&quot;&gt;&lt;span style=&quot;background-color: initial;&quot;&gt;Compute: `\tau_2=WH&amp;nbsp; (7)`&lt;/span&gt;&lt;/div&gt;&lt;/font&gt;" style="rounded=1;whiteSpace=wrap;html=1;fillColor=#e1d5e7;strokeColor=#9673a6;" parent="1" vertex="1">
          <mxGeometry x="70" y="253" width="230" height="147" as="geometry" />
        </mxCell>
        <mxCell id="Ddu9wDRHc_xumgMtI3vM-8" value="&lt;div style=&quot;font-size: 16px;&quot;&gt;&lt;font style=&quot;font-size: 16px;&quot;&gt;&amp;nbsp;Generate: `R_{SG}^1= KDF(K,S,I)&amp;nbsp; (9)`&lt;/font&gt;&lt;/div&gt;&lt;font style=&quot;font-size: 16px;&quot;&gt;&lt;div style=&quot;&quot;&gt;&lt;span style=&quot;background-color: initial;&quot;&gt;&amp;nbsp;Compute: `\beta=h(WH, R_{SG}^1)&amp;nbsp; (10)`&lt;/span&gt;&lt;/div&gt;&lt;/font&gt;" style="rounded=1;whiteSpace=wrap;html=1;fillColor=#e1d5e7;strokeColor=#9673a6;align=left;" parent="1" vertex="1">
          <mxGeometry x="510" y="260" width="290" height="90" as="geometry" />
        </mxCell>
        <mxCell id="Ddu9wDRHc_xumgMtI3vM-10" value="&lt;span style=&quot;font-size: 16px;&quot;&gt;&amp;nbsp; Store: `B_1,B_2,G,H,R_{SG}^1,\beta`&lt;/span&gt;" style="rounded=1;whiteSpace=wrap;html=1;fillColor=#dae8fc;strokeColor=#6c8ebf;align=left;" parent="1" vertex="1">
          <mxGeometry x="80" y="440" width="250" height="70" as="geometry" />
        </mxCell>
        <mxCell id="Ddu9wDRHc_xumgMtI3vM-11" value="&lt;font style=&quot;font-size: 16px;&quot;&gt;Store: `G, H, U_{ID}, C_U, \tau_1,\tau_2,R_{SG}^1,\beta`&lt;/font&gt;" style="rounded=1;whiteSpace=wrap;html=1;fillColor=#dae8fc;strokeColor=#6c8ebf;" parent="1" vertex="1">
          <mxGeometry x="500" y="440" width="290" height="70" as="geometry" />
        </mxCell>
        <mxCell id="Ddu9wDRHc_xumgMtI3vM-12" value="&lt;font style=&quot;font-size: 15px;&quot;&gt;`U_{ID}, R_q`&lt;/font&gt;" style="rounded=0;whiteSpace=wrap;html=1;fillColor=#FFFF00;strokeColor=#82b366;" parent="1" vertex="1">
          <mxGeometry x="395" y="150" width="80" height="26" as="geometry" />
        </mxCell>
        <mxCell id="Ddu9wDRHc_xumgMtI3vM-13" value="&lt;font style=&quot;font-size: 16px;&quot;&gt;`C_U , G, H`&lt;/font&gt;" style="rounded=0;whiteSpace=wrap;html=1;fillColor=#E5CCFF;" parent="1" vertex="1">
          <mxGeometry x="375" y="200" width="100" height="26" as="geometry" />
        </mxCell>
        <mxCell id="Ddu9wDRHc_xumgMtI3vM-15" value="`\tau_1,\tau_2`" style="rounded=0;whiteSpace=wrap;html=1;fillColor=#dae8fc;strokeColor=#6c8ebf;fontSize=16;" parent="1" vertex="1">
          <mxGeometry x="340" y="310" width="85" height="26" as="geometry" />
        </mxCell>
        <mxCell id="Ddu9wDRHc_xumgMtI3vM-16" value="&lt;font style=&quot;font-size: 16px;&quot;&gt;`R_{SG}^1,\beta`&lt;/font&gt;" style="rounded=0;whiteSpace=wrap;html=1;fillColor=#A6F9FF;spacingTop=18;spacingBottom=22;" parent="1" vertex="1">
          <mxGeometry x="345" y="400" width="75" height="29" as="geometry" />
        </mxCell>
        <mxCell id="Ddu9wDRHc_xumgMtI3vM-18" value="" style="endArrow=none;dashed=1;html=1;rounded=0;entryX=0.573;entryY=0.997;entryDx=0;entryDy=0;entryPerimeter=0;exitX=0.314;exitY=-0.022;exitDx=0;exitDy=0;exitPerimeter=0;" parent="1" source="Ddu9wDRHc_xumgMtI3vM-5" target="Ddu9wDRHc_xumgMtI3vM-3" edge="1">
          <mxGeometry width="50" height="50" relative="1" as="geometry">
            <mxPoint x="158" y="250" as="sourcePoint" />
            <mxPoint x="450" y="180" as="targetPoint" />
          </mxGeometry>
        </mxCell>
        <mxCell id="Ddu9wDRHc_xumgMtI3vM-19" value="" style="endArrow=none;dashed=1;html=1;rounded=0;exitX=0.342;exitY=0.014;exitDx=0;exitDy=0;exitPerimeter=0;entryX=0.402;entryY=1.005;entryDx=0;entryDy=0;entryPerimeter=0;" parent="1" source="Ddu9wDRHc_xumgMtI3vM-10" target="Ddu9wDRHc_xumgMtI3vM-5" edge="1">
          <mxGeometry width="50" height="50" relative="1" as="geometry">
            <mxPoint x="171" y="440" as="sourcePoint" />
            <mxPoint x="166" y="390" as="targetPoint" />
          </mxGeometry>
        </mxCell>
        <mxCell id="Ddu9wDRHc_xumgMtI3vM-20" value="" style="endArrow=none;dashed=1;html=1;rounded=0;exitX=0.587;exitY=0.01;exitDx=0;exitDy=0;exitPerimeter=0;entryX=0.593;entryY=0.993;entryDx=0;entryDy=0;entryPerimeter=0;" parent="1" source="Ddu9wDRHc_xumgMtI3vM-3" target="Ddu9wDRHc_xumgMtI3vM-1" edge="1">
          <mxGeometry width="50" height="50" relative="1" as="geometry">
            <mxPoint x="400" y="230" as="sourcePoint" />
            <mxPoint x="160" y="60" as="targetPoint" />
          </mxGeometry>
        </mxCell>
        <mxCell id="Ddu9wDRHc_xumgMtI3vM-21" value="" style="endArrow=none;dashed=1;html=1;rounded=0;" parent="1" edge="1">
          <mxGeometry width="50" height="50" relative="1" as="geometry">
            <mxPoint x="716" y="261" as="sourcePoint" />
            <mxPoint x="716" y="226" as="targetPoint" />
          </mxGeometry>
        </mxCell>
        <mxCell id="Ddu9wDRHc_xumgMtI3vM-22" value="" style="endArrow=none;dashed=1;html=1;rounded=0;entryX=0.5;entryY=1;entryDx=0;entryDy=0;exitX=0.5;exitY=0;exitDx=0;exitDy=0;" parent="1" source="Ddu9wDRHc_xumgMtI3vM-4" target="Ddu9wDRHc_xumgMtI3vM-2" edge="1">
          <mxGeometry width="50" height="50" relative="1" as="geometry">
            <mxPoint x="400" y="230" as="sourcePoint" />
            <mxPoint x="450" y="180" as="targetPoint" />
          </mxGeometry>
        </mxCell>
        <mxCell id="Ddu9wDRHc_xumgMtI3vM-23" value="" style="endArrow=none;dashed=1;html=1;rounded=0;exitX=0.75;exitY=0;exitDx=0;exitDy=0;" parent="1" source="Ddu9wDRHc_xumgMtI3vM-11" edge="1">
          <mxGeometry width="50" height="50" relative="1" as="geometry">
            <mxPoint x="520" y="230" as="sourcePoint" />
            <mxPoint x="718" y="350" as="targetPoint" />
          </mxGeometry>
        </mxCell>
        <mxCell id="Ddu9wDRHc_xumgMtI3vM-24" value="" style="endArrow=none;html=1;rounded=0;exitX=1;exitY=0.5;exitDx=0;exitDy=0;" parent="1" source="Ddu9wDRHc_xumgMtI3vM-16" edge="1">
          <mxGeometry width="50" height="50" relative="1" as="geometry">
            <mxPoint x="520" y="230" as="sourcePoint" />
            <mxPoint x="719" y="414" as="targetPoint" />
          </mxGeometry>
        </mxCell>
        <mxCell id="Ddu9wDRHc_xumgMtI3vM-25" value="" style="endArrow=classic;html=1;rounded=0;exitX=0;exitY=0.5;exitDx=0;exitDy=0;" parent="1" source="Ddu9wDRHc_xumgMtI3vM-16" edge="1">
          <mxGeometry width="50" height="50" relative="1" as="geometry">
            <mxPoint x="520" y="230" as="sourcePoint" />
            <mxPoint x="162" y="413" as="targetPoint" />
          </mxGeometry>
        </mxCell>
        <mxCell id="Ddu9wDRHc_xumgMtI3vM-26" value="" style="endArrow=none;html=1;rounded=0;entryX=0;entryY=0.5;entryDx=0;entryDy=0;" parent="1" target="Ddu9wDRHc_xumgMtI3vM-15" edge="1">
          <mxGeometry width="50" height="50" relative="1" as="geometry">
            <mxPoint x="299" y="323" as="sourcePoint" />
            <mxPoint x="570" y="180" as="targetPoint" />
          </mxGeometry>
        </mxCell>
        <mxCell id="Ddu9wDRHc_xumgMtI3vM-27" value="" style="endArrow=classic;html=1;rounded=0;exitX=1;exitY=0.5;exitDx=0;exitDy=0;" parent="1" source="Ddu9wDRHc_xumgMtI3vM-15" edge="1">
          <mxGeometry width="50" height="50" relative="1" as="geometry">
            <mxPoint x="520" y="230" as="sourcePoint" />
            <mxPoint x="511" y="323" as="targetPoint" />
          </mxGeometry>
        </mxCell>
        <mxCell id="Ddu9wDRHc_xumgMtI3vM-29" value="" style="endArrow=classic;html=1;rounded=0;exitX=0;exitY=0.5;exitDx=0;exitDy=0;" parent="1" source="Ddu9wDRHc_xumgMtI3vM-13" edge="1">
          <mxGeometry width="50" height="50" relative="1" as="geometry">
            <mxPoint x="520" y="230" as="sourcePoint" />
            <mxPoint x="150" y="213" as="targetPoint" />
          </mxGeometry>
        </mxCell>
        <mxCell id="Ddu9wDRHc_xumgMtI3vM-31" value="" style="endArrow=classic;html=1;rounded=0;exitX=1;exitY=0.5;exitDx=0;exitDy=0;" parent="1" source="Ddu9wDRHc_xumgMtI3vM-12" edge="1">
          <mxGeometry width="50" height="50" relative="1" as="geometry">
            <mxPoint x="480" y="160" as="sourcePoint" />
            <mxPoint x="641" y="163" as="targetPoint" />
          </mxGeometry>
        </mxCell>
        <mxCell id="Ddu9wDRHc_xumgMtI3vM-32" value="" style="endArrow=none;html=1;rounded=0;entryX=0;entryY=0.5;entryDx=0;entryDy=0;" parent="1" target="Ddu9wDRHc_xumgMtI3vM-12" edge="1">
          <mxGeometry width="50" height="50" relative="1" as="geometry">
            <mxPoint x="202" y="162" as="sourcePoint" />
            <mxPoint x="570" y="280" as="targetPoint" />
          </mxGeometry>
        </mxCell>
        <mxCell id="Ddu9wDRHc_xumgMtI3vM-33" value="1" style="rounded=0;whiteSpace=wrap;html=1;fillColor=#62AB2B;strokeColor=#82b366;" parent="1" vertex="1">
          <mxGeometry x="50" y="140" width="20" height="19" as="geometry" />
        </mxCell>
        <mxCell id="Ddu9wDRHc_xumgMtI3vM-36" value="2" style="rounded=0;whiteSpace=wrap;html=1;fillColor=#67AB9F;" parent="1" vertex="1">
          <mxGeometry x="800" y="150" width="20" height="20" as="geometry" />
        </mxCell>
        <mxCell id="Ddu9wDRHc_xumgMtI3vM-37" value="3" style="rounded=0;whiteSpace=wrap;html=1;fillColor=#67AB9F;" parent="1" vertex="1">
          <mxGeometry x="50" y="260" width="20" height="20" as="geometry" />
        </mxCell>
        <mxCell id="Ddu9wDRHc_xumgMtI3vM-39" value="4" style="rounded=0;whiteSpace=wrap;html=1;fillColor=#67AB9F;" parent="1" vertex="1">
          <mxGeometry x="810" y="275" width="20" height="20" as="geometry" />
        </mxCell>
        <mxCell id="Ddu9wDRHc_xumgMtI3vM-40" value="5" style="rounded=0;whiteSpace=wrap;html=1;fillColor=#67AB9F;" parent="1" vertex="1">
          <mxGeometry x="50" y="440" width="20" height="20" as="geometry" />
        </mxCell>
        <mxCell id="Ddu9wDRHc_xumgMtI3vM-42" value="6" style="rounded=0;whiteSpace=wrap;html=1;fillColor=#67AB9F;" parent="1" vertex="1">
          <mxGeometry x="800" y="440" width="20" height="20" as="geometry" />
        </mxCell>
        <mxCell id="SoYMRN2-4axB4GX_azqP-4" value="&lt;font style=&quot;font-size: 16px;&quot;&gt;`M_{UG}^1 (1)`&lt;/font&gt;" style="text;html=1;align=center;verticalAlign=middle;resizable=0;points=[];autosize=1;strokeColor=none;fillColor=none;" parent="1" vertex="1">
          <mxGeometry x="365" y="120" width="130" height="30" as="geometry" />
        </mxCell>
        <mxCell id="SoYMRN2-4axB4GX_azqP-5" value="&lt;font style=&quot;font-size: 16px;&quot;&gt;`M_{GU}^2 (2)`&lt;/font&gt;" style="text;html=1;align=center;verticalAlign=middle;resizable=0;points=[];autosize=1;strokeColor=none;fillColor=none;" parent="1" vertex="1">
          <mxGeometry x="465" y="176" width="130" height="30" as="geometry" />
        </mxCell>
        <mxCell id="SoYMRN2-4axB4GX_azqP-6" value="&lt;font style=&quot;font-size: 16px;&quot;&gt;`M_{UG}^3 (8)`&lt;/font&gt;" style="text;html=1;align=center;verticalAlign=middle;resizable=0;points=[];autosize=1;strokeColor=none;fillColor=none;" parent="1" vertex="1">
          <mxGeometry x="320" y="275" width="130" height="30" as="geometry" />
        </mxCell>
        <mxCell id="SoYMRN2-4axB4GX_azqP-7" value="&lt;font style=&quot;font-size: 16px;&quot;&gt;`M_{GU}^4 (11)`&lt;/font&gt;" style="text;html=1;align=center;verticalAlign=middle;resizable=0;points=[];autosize=1;strokeColor=none;fillColor=none;" parent="1" vertex="1">
          <mxGeometry x="325" y="370" width="140" height="30" as="geometry" />
        </mxCell>
        <mxCell id="SoYMRN2-4axB4GX_azqP-9" value="" style="endArrow=classic;startArrow=classic;html=1;rounded=0;" parent="1" edge="1">
          <mxGeometry width="50" height="50" relative="1" as="geometry">
            <mxPoint x="130" y="590" as="sourcePoint" />
            <mxPoint x="720" y="590" as="targetPoint" />
            <Array as="points">
              <mxPoint x="390" y="590" />
            </Array>
          </mxGeometry>
        </mxCell>
        <mxCell id="SoYMRN2-4axB4GX_azqP-10" value="&lt;font style=&quot;font-size: 18px;&quot;&gt;Secure Channel&lt;/font&gt;" style="text;html=1;align=center;verticalAlign=middle;resizable=0;points=[];autosize=1;strokeColor=none;fillColor=none;" parent="1" vertex="1">
          <mxGeometry x="345" y="540" width="150" height="40" as="geometry" />
        </mxCell>
      </root>
    </mxGraphModel>
  </diagram>
</mxfile>
